<svg xmlns:xlink="http://www.w3.org/1999/xlink" xmlns="http://www.w3.org/2000/svg" version="1.1" fill="none" stroke="none" stroke-linecap="square" stroke-miterlimit="10" viewBox="223.56 172.83 528.63 194"><clipPath id="p.0"><path d="m0 0l960.0 0l0 540.0l-960.0 0l0 -540.0z" clip-rule="nonzero"/></clipPath><g clip-path="url(#p.0)"><path fill="#d9ead3" d="m223.56018 363.70865l0 -190.87498l23.4375 0l0 108.843735l55.46875 -56.249985l30.34375 0l-52.875 51.312485l58.203125 86.96875l-28.90625 0l-45.6875 -70.703125l-16.546875 15.890625l0 54.8125l-23.4375 0z" fill-rule="nonzero"/><path fill="#fff2cc" d="m347.3883 322.4274l23.171875 -3.640625q1.953125 13.9375 10.875 21.359375q8.921875 7.421875 24.9375 7.421875q16.140625 0 23.953125 -6.578125q7.8125 -6.578125 7.8125 -15.4375q0 -7.9375 -6.90625 -12.5q-4.8125 -3.125 -23.953125 -7.9375q-25.78125 -6.515625 -35.75 -11.265625q-9.953125 -4.75 -15.09375 -13.140625q-5.140625 -8.40625 -5.140625 -18.5625q0 -9.23436 4.234375 -17.10936q4.234375 -7.890625 11.515625 -13.09375q5.46875 -4.03125 14.90625 -6.828125q9.453125 -2.8125 20.25 -2.8125q16.28125 0 28.578125 4.6875q12.3125 4.6875 18.171875 12.703125q5.859375 8.0 8.0625 21.42186l-22.90625 3.125q-1.5625 -10.687485 -9.0625 -16.67186q-7.484375 -5.984375 -21.140625 -5.984375q-16.15625 0 -23.0625 5.34375q-6.890625 5.328125 -6.890625 12.48436q0 4.5625 2.859375 8.203125q2.875 3.78125 8.984375 6.25q3.515625 1.3125 20.703125 6.0q24.875 6.640625 34.703125 10.875q9.828125 4.21875 15.421875 12.296875q5.609375 8.0625 5.609375 20.046875q0 11.71875 -6.84375 22.078125q-6.828125 10.34375 -19.71875 16.015625q-12.890625 5.65625 -29.171875 5.65625q-26.953125 0 -41.078125 -11.1875q-14.125 -11.203125 -18.03125 -33.21875z" fill-rule="nonzero"/><path fill="#fce5cd" d="m580.71643 363.70865l0 -20.3125q-16.15625 23.4375 -43.875 23.4375q-12.25 0 -22.859375 -4.6875q-10.609375 -4.6875 -15.75 -11.78125q-5.140625 -7.09375 -7.234375 -17.390625q-1.421875 -6.890625 -1.421875 -21.875l0 -85.67186l23.4375 0l0 76.687485q0 18.359375 1.421875 24.75q2.21875 9.234375 9.375 14.515625q7.171875 5.265625 17.703125 5.265625q10.546875 0 19.796875 -5.390625q9.25 -5.40625 13.078125 -14.71875q3.84375 -9.3125 3.84375 -27.015625l0 -74.093735l23.4375 0l0 138.28123l-20.953125 0z" fill-rule="nonzero"/><path fill="#f4cccc" d="m622.76794 363.70865l50.515625 -71.875l-46.734375 -66.406235l29.296875 0l21.21875 32.42186q5.984375 9.25 9.640625 15.5q5.71875 -8.59375 10.53125 -15.234375l23.3125 -32.687485l28.0 0l-47.796875 65.10936l51.4375 73.171875l-28.78125 0l-28.375 -42.96875l-7.546875 -11.59375l-36.328125 54.5625l-28.390625 0z" fill-rule="nonzero"/></g></svg>